<svg width="16" height="16" viewBox="0 0 16 16" fill="none" xmlns="http://www.w3.org/2000/svg">
<g id="logo-youtube">
<path id="Vector" d="M15.8962 4.64969C15.8962 3.24344 14.8618 2.11219 13.5837 2.11219C11.8524 2.03125 10.0868 2 8.28242 2H7.71992C5.91992 2 4.15117 2.03125 2.41992 2.1125C1.14492 2.1125 0.110542 3.25 0.110542 4.65625C0.0324166 5.76844 -0.000708404 6.88094 0.0011666 7.99344C-0.0019584 9.10594 0.0334583 10.2195 0.107417 11.3341C0.107417 12.7403 1.14179 13.8809 2.41679 13.8809C4.23554 13.9653 6.10117 14.0028 7.99804 13.9997C9.89804 14.0059 11.7585 13.9664 13.5793 13.8809C14.8574 13.8809 15.8918 12.7403 15.8918 11.3341C15.9668 10.2184 16.0012 9.10594 15.998 7.99031C16.0051 6.87781 15.9712 5.76427 15.8962 4.64969ZM6.46992 11.0591V4.91844L11.0012 7.98719L6.46992 11.0591Z" fill="white"/>
</g>
</svg>
