<svg width="16" height="16" viewBox="0 0 16 16" fill="none" xmlns="http://www.w3.org/2000/svg">
<g id="logo-instagram">
<g id="Vector">
<path d="M10.9166 2.16656C11.6895 2.16887 12.43 2.47692 12.9766 3.02345C13.5231 3.56997 13.8311 4.31054 13.8334 5.08344V10.9166C13.8311 11.6895 13.5231 12.43 12.9766 12.9766C12.43 13.5231 11.6895 13.8311 10.9166 13.8334H5.08344C4.31054 13.8311 3.56997 13.5231 3.02345 12.9766C2.47692 12.43 2.16887 11.6895 2.16656 10.9166V5.08344C2.16887 4.31054 2.47692 3.56997 3.02345 3.02345C3.56997 2.47692 4.31054 2.16887 5.08344 2.16656H10.9166ZM10.9166 1H5.08344C2.8375 1 1 2.8375 1 5.08344V10.9166C1 13.1625 2.8375 15 5.08344 15H10.9166C13.1625 15 15 13.1625 15 10.9166V5.08344C15 2.8375 13.1625 1 10.9166 1Z" fill="white"/>
<path d="M11.7916 5.08344C11.6185 5.08344 11.4493 5.03212 11.3054 4.93597C11.1615 4.83983 11.0494 4.70317 10.9832 4.54329C10.9169 4.3834 10.8996 4.20747 10.9334 4.03773C10.9671 3.868 11.0505 3.71209 11.1728 3.58972C11.2952 3.46735 11.4511 3.38401 11.6209 3.35025C11.7906 3.31649 11.9665 3.33382 12.1264 3.40004C12.2863 3.46627 12.423 3.57842 12.5191 3.72231C12.6152 3.86621 12.6666 4.03538 12.6666 4.20844C12.6668 4.32341 12.6443 4.43731 12.6005 4.54358C12.5566 4.64985 12.4921 4.74641 12.4108 4.82771C12.3295 4.90901 12.233 4.97345 12.1267 5.01734C12.0204 5.06122 11.9065 5.08368 11.7916 5.08344Z" fill="white"/>
<path d="M8 5.66656C8.46151 5.66656 8.91266 5.80342 9.29639 6.05982C9.68012 6.31622 9.9792 6.68065 10.1558 7.10703C10.3324 7.53341 10.3786 8.00259 10.2886 8.45523C10.1986 8.90787 9.97633 9.32365 9.64999 9.64999C9.32365 9.97633 8.90787 10.1986 8.45523 10.2886C8.00259 10.3786 7.53341 10.3324 7.10703 10.1558C6.68065 9.9792 6.31622 9.68012 6.05982 9.29639C5.80342 8.91266 5.66656 8.46151 5.66656 8C5.66722 7.38134 5.91328 6.7882 6.35074 6.35074C6.7882 5.91328 7.38134 5.66722 8 5.66656ZM8 4.5C7.30777 4.5 6.63108 4.70527 6.0555 5.08986C5.47993 5.47444 5.03133 6.02107 4.76642 6.66061C4.50152 7.30015 4.4322 8.00388 4.56725 8.68282C4.7023 9.36175 5.03564 9.98539 5.52513 10.4749C6.01461 10.9644 6.63825 11.2977 7.31718 11.4327C7.99612 11.5678 8.69985 11.4985 9.33939 11.2336C9.97893 10.9687 10.5256 10.5201 10.9101 9.9445C11.2947 9.36892 11.5 8.69223 11.5 8C11.5 7.07174 11.1313 6.1815 10.4749 5.52513C9.8185 4.86875 8.92826 4.5 8 4.5Z" fill="white"/>
</g>
</g>
</svg>
