<svg width="16" height="16" viewBox="0 0 16 16" fill="none" xmlns="http://www.w3.org/2000/svg">
<g id="logo-twitter">
<path id="Vector" d="M15.5 3.42176C14.9373 3.66624 14.342 3.82732 13.7328 3.89988C14.373 3.525 14.8545 2.92944 15.0869 2.22488C14.4816 2.57882 13.8205 2.82716 13.1319 2.95926C12.8419 2.65536 12.4932 2.4136 12.1069 2.24868C11.7205 2.08375 11.3047 1.99911 10.8847 1.99988C9.18406 1.99988 7.80781 3.35613 7.80781 5.02801C7.80661 5.26056 7.83325 5.49242 7.88719 5.71863C6.66772 5.66146 5.4736 5.35038 4.38124 4.80528C3.28889 4.26017 2.32234 3.49306 1.54344 2.55301C1.27018 3.01367 1.12567 3.53927 1.125 4.07488C1.125 5.12488 1.67281 6.05301 2.5 6.59676C2.00991 6.58513 1.52987 6.45541 1.10063 6.21863V6.25613C1.10063 7.72488 2.16313 8.94676 3.56938 9.22488C3.30493 9.29538 3.03243 9.3311 2.75875 9.33113C2.56456 9.33147 2.3708 9.31263 2.18031 9.27488C2.57125 10.478 3.70906 11.353 5.05688 11.378C3.96168 12.222 2.61707 12.6782 1.23438 12.6749C0.988943 12.6745 0.743739 12.6599 0.5 12.6311C1.90662 13.5293 3.5417 14.0044 5.21063 13.9999C10.8781 13.9999 13.9744 9.38426 13.9744 5.38113C13.9744 5.24988 13.9709 5.11863 13.9647 4.99051C14.5657 4.56303 15.0856 4.03179 15.5 3.42176Z" fill="white"/>
</g>
</svg>
